<mxfile host="app.diagrams.net" agent="Mozilla/5.0 (Windows NT 10.0; Win64; x64) AppleWebKit/537.36 (KHTML, like Gecko) Chrome/128.0.0.0 Safari/537.36 Edg/128.0.0.0" version="24.7.7">
  <diagram name="Page-1" id="G8Z1aOc2a2VwqG3tYmDv">
    <mxGraphModel dx="827" dy="1509" grid="1" gridSize="10" guides="1" tooltips="1" connect="1" arrows="1" fold="1" page="1" pageScale="1" pageWidth="850" pageHeight="1100" math="0" shadow="0">
      <root>
        <mxCell id="0" />
        <mxCell id="1" parent="0" />
        <mxCell id="RrCD0M5poMjOQzzuSIQ9-3" value="" style="edgeStyle=orthogonalEdgeStyle;rounded=0;orthogonalLoop=1;jettySize=auto;html=1;" parent="1" source="RrCD0M5poMjOQzzuSIQ9-1" target="RrCD0M5poMjOQzzuSIQ9-2" edge="1">
          <mxGeometry relative="1" as="geometry" />
        </mxCell>
        <mxCell id="RrCD0M5poMjOQzzuSIQ9-1" value="read_initial_inputs.f90" style="rounded=1;whiteSpace=wrap;html=1;" parent="1" vertex="1">
          <mxGeometry x="362.5" y="30" width="145" height="60" as="geometry" />
        </mxCell>
        <mxCell id="RrCD0M5poMjOQzzuSIQ9-5" value="&amp;nbsp;= 1" style="rounded=0;orthogonalLoop=1;jettySize=auto;html=1;entryX=0;entryY=0.52;entryDx=0;entryDy=0;entryPerimeter=0;" parent="1" source="RrCD0M5poMjOQzzuSIQ9-2" target="RrCD0M5poMjOQzzuSIQ9-4" edge="1">
          <mxGeometry x="0.0039" relative="1" as="geometry">
            <mxPoint as="offset" />
          </mxGeometry>
        </mxCell>
        <mxCell id="RrCD0M5poMjOQzzuSIQ9-2" value="Drainage Database (DDB)format" style="rhombus;whiteSpace=wrap;html=1;rounded=1;" parent="1" vertex="1">
          <mxGeometry x="350" y="145" width="170" height="80" as="geometry" />
        </mxCell>
        <mxCell id="RrCD0M5poMjOQzzuSIQ9-4" value="r2c ASCII format&lt;div style=&quot;&quot;&gt;&lt;span style=&quot;font-size: 11px;&quot;&gt;reads&amp;nbsp;&lt;/span&gt;&lt;font style=&quot;font-size: 8px;&quot;&gt;MESH_drainage_database.r2c&lt;/font&gt;&lt;span style=&quot;font-size: 11px;&quot;&gt;&amp;nbsp;&lt;/span&gt;&lt;/div&gt;" style="whiteSpace=wrap;html=1;rounded=1;" parent="1" vertex="1">
          <mxGeometry x="650" y="110" width="150" height="50" as="geometry" />
        </mxCell>
        <mxCell id="RrCD0M5poMjOQzzuSIQ9-6" value="Point mode&lt;div&gt;reads CLASS.ini&lt;/div&gt;" style="whiteSpace=wrap;html=1;rounded=1;" parent="1" vertex="1">
          <mxGeometry x="650" y="160" width="150" height="50" as="geometry" />
        </mxCell>
        <mxCell id="RrCD0M5poMjOQzzuSIQ9-7" value="NetCDF format&lt;div&gt;&lt;font style=&quot;font-size: 8px;&quot;&gt;reads MESH_drainage_database.nc&lt;/font&gt;&lt;br&gt;&lt;/div&gt;" style="whiteSpace=wrap;html=1;rounded=1;" parent="1" vertex="1">
          <mxGeometry x="650" y="210" width="150" height="50" as="geometry" />
        </mxCell>
        <mxCell id="RrCD0M5poMjOQzzuSIQ9-8" value="= 2" style="rounded=0;orthogonalLoop=1;jettySize=auto;html=1;entryX=0;entryY=0.25;entryDx=0;entryDy=0;exitX=0.931;exitY=0.54;exitDx=0;exitDy=0;exitPerimeter=0;" parent="1" source="RrCD0M5poMjOQzzuSIQ9-2" target="RrCD0M5poMjOQzzuSIQ9-6" edge="1">
          <mxGeometry x="0.0791" y="-1" relative="1" as="geometry">
            <mxPoint x="520" y="170" as="sourcePoint" />
            <mxPoint x="650" y="186.5" as="targetPoint" />
            <mxPoint as="offset" />
          </mxGeometry>
        </mxCell>
        <mxCell id="RrCD0M5poMjOQzzuSIQ9-9" value="= 3, 5" style="rounded=0;orthogonalLoop=1;jettySize=auto;html=1;entryX=0;entryY=0.5;entryDx=0;entryDy=0;exitX=0.936;exitY=0.55;exitDx=0;exitDy=0;exitPerimeter=0;" parent="1" source="RrCD0M5poMjOQzzuSIQ9-2" edge="1">
          <mxGeometry x="0.1543" y="-4" relative="1" as="geometry">
            <mxPoint x="510" y="172" as="sourcePoint" />
            <mxPoint x="650" y="230" as="targetPoint" />
            <mxPoint as="offset" />
          </mxGeometry>
        </mxCell>
        <mxCell id="RrCD0M5poMjOQzzuSIQ9-52" style="edgeStyle=orthogonalEdgeStyle;rounded=0;orthogonalLoop=1;jettySize=auto;html=1;exitX=0.5;exitY=1;exitDx=0;exitDy=0;entryX=1;entryY=0.5;entryDx=0;entryDy=0;" parent="1" source="RrCD0M5poMjOQzzuSIQ9-10" target="RrCD0M5poMjOQzzuSIQ9-24" edge="1">
          <mxGeometry relative="1" as="geometry" />
        </mxCell>
        <mxCell id="RrCD0M5poMjOQzzuSIQ9-10" value="text format&lt;div&gt;&lt;font style=&quot;font-size: 8px;&quot;&gt;reads MESH_drainage_database.asc&lt;/font&gt;&lt;br&gt;&lt;/div&gt;" style="whiteSpace=wrap;html=1;rounded=1;" parent="1" vertex="1">
          <mxGeometry x="650" y="260" width="150" height="50" as="geometry" />
        </mxCell>
        <mxCell id="RrCD0M5poMjOQzzuSIQ9-11" value="= 4" style="rounded=0;orthogonalLoop=1;jettySize=auto;html=1;exitX=0.865;exitY=0.63;exitDx=0;exitDy=0;exitPerimeter=0;entryX=0;entryY=0.5;entryDx=0;entryDy=0;" parent="1" source="RrCD0M5poMjOQzzuSIQ9-2" target="RrCD0M5poMjOQzzuSIQ9-10" edge="1">
          <mxGeometry x="0.313" y="-6" relative="1" as="geometry">
            <mxPoint x="520" y="180" as="sourcePoint" />
            <mxPoint x="640" y="290" as="targetPoint" />
            <mxPoint as="offset" />
          </mxGeometry>
        </mxCell>
        <mxCell id="RrCD0M5poMjOQzzuSIQ9-12" value="&lt;span style=&quot;color: rgb(0, 0, 0); font-family: Helvetica; font-size: 11px; font-style: normal; font-variant-ligatures: normal; font-variant-caps: normal; font-weight: 400; letter-spacing: normal; orphans: 2; text-align: center; text-indent: 0px; text-transform: none; widows: 2; word-spacing: 0px; -webkit-text-stroke-width: 0px; white-space: nowrap; background-color: rgb(255, 255, 255); text-decoration-thickness: initial; text-decoration-style: initial; text-decoration-color: initial; display: inline !important; float: none;&quot;&gt;SHDFILEFMT&lt;/span&gt;" style="text;whiteSpace=wrap;html=1;" parent="1" vertex="1">
          <mxGeometry x="540" y="110" width="80" height="20" as="geometry" />
        </mxCell>
        <mxCell id="RrCD0M5poMjOQzzuSIQ9-22" value="" style="edgeStyle=orthogonalEdgeStyle;rounded=0;orthogonalLoop=1;jettySize=auto;html=1;" parent="1" source="RrCD0M5poMjOQzzuSIQ9-17" target="RrCD0M5poMjOQzzuSIQ9-21" edge="1">
          <mxGeometry relative="1" as="geometry" />
        </mxCell>
        <mxCell id="RrCD0M5poMjOQzzuSIQ9-23" value="Yes" style="edgeLabel;html=1;align=center;verticalAlign=middle;resizable=0;points=[];" parent="RrCD0M5poMjOQzzuSIQ9-22" vertex="1" connectable="0">
          <mxGeometry x="-0.0077" y="2" relative="1" as="geometry">
            <mxPoint as="offset" />
          </mxGeometry>
        </mxCell>
        <mxCell id="RrCD0M5poMjOQzzuSIQ9-17" value="ro%RUNLSS == true" style="rhombus;whiteSpace=wrap;html=1;rounded=1;" parent="1" vertex="1">
          <mxGeometry x="356.25" y="388" width="160" height="100" as="geometry" />
        </mxCell>
        <mxCell id="RrCD0M5poMjOQzzuSIQ9-20" style="edgeStyle=orthogonalEdgeStyle;rounded=0;orthogonalLoop=1;jettySize=auto;html=1;exitX=0.5;exitY=1;exitDx=0;exitDy=0;" parent="1" source="RrCD0M5poMjOQzzuSIQ9-17" target="RrCD0M5poMjOQzzuSIQ9-17" edge="1">
          <mxGeometry relative="1" as="geometry" />
        </mxCell>
        <mxCell id="RrCD0M5poMjOQzzuSIQ9-21" value="Populate the &lt;code&gt;shd%lc%ACLASS&lt;/code&gt; array with tile area weight" style="whiteSpace=wrap;html=1;rounded=1;" parent="1" vertex="1">
          <mxGeometry x="50" y="403" width="160" height="70" as="geometry" />
        </mxCell>
        <mxCell id="RrCD0M5poMjOQzzuSIQ9-27" style="edgeStyle=orthogonalEdgeStyle;rounded=0;orthogonalLoop=1;jettySize=auto;html=1;entryX=0.5;entryY=0;entryDx=0;entryDy=0;" parent="1" source="RrCD0M5poMjOQzzuSIQ9-24" target="RrCD0M5poMjOQzzuSIQ9-17" edge="1">
          <mxGeometry relative="1" as="geometry" />
        </mxCell>
        <mxCell id="RrCD0M5poMjOQzzuSIQ9-24" value="variable &quot;shd&quot;" style="rounded=1;whiteSpace=wrap;html=1;" parent="1" vertex="1">
          <mxGeometry x="377.5" y="318" width="120" height="40" as="geometry" />
        </mxCell>
        <mxCell id="RrCD0M5poMjOQzzuSIQ9-32" value="" style="edgeStyle=orthogonalEdgeStyle;rounded=0;orthogonalLoop=1;jettySize=auto;html=1;" parent="1" source="RrCD0M5poMjOQzzuSIQ9-28" target="RrCD0M5poMjOQzzuSIQ9-31" edge="1">
          <mxGeometry relative="1" as="geometry" />
        </mxCell>
        <mxCell id="RrCD0M5poMjOQzzuSIQ9-33" value="Yes" style="edgeLabel;html=1;align=center;verticalAlign=middle;resizable=0;points=[];" parent="RrCD0M5poMjOQzzuSIQ9-32" vertex="1" connectable="0">
          <mxGeometry x="-0.1367" y="-2" relative="1" as="geometry">
            <mxPoint as="offset" />
          </mxGeometry>
        </mxCell>
        <mxCell id="RrCD0M5poMjOQzzuSIQ9-38" style="edgeStyle=orthogonalEdgeStyle;rounded=0;orthogonalLoop=1;jettySize=auto;html=1;exitX=0.5;exitY=1;exitDx=0;exitDy=0;" parent="1" source="RrCD0M5poMjOQzzuSIQ9-28" target="RrCD0M5poMjOQzzuSIQ9-37" edge="1">
          <mxGeometry relative="1" as="geometry" />
        </mxCell>
        <mxCell id="RrCD0M5poMjOQzzuSIQ9-28" value="SHDTOMAPFLAG &amp;amp; ISHEADNODE== true" style="rhombus;whiteSpace=wrap;html=1;rounded=1;" parent="1" vertex="1">
          <mxGeometry x="355" y="518" width="162.5" height="100" as="geometry" />
        </mxCell>
        <mxCell id="RrCD0M5poMjOQzzuSIQ9-29" style="edgeStyle=orthogonalEdgeStyle;rounded=0;orthogonalLoop=1;jettySize=auto;html=1;exitX=0.5;exitY=1;exitDx=0;exitDy=0;entryX=0.495;entryY=0.1;entryDx=0;entryDy=0;entryPerimeter=0;" parent="1" source="RrCD0M5poMjOQzzuSIQ9-17" target="RrCD0M5poMjOQzzuSIQ9-28" edge="1">
          <mxGeometry relative="1" as="geometry" />
        </mxCell>
        <mxCell id="RrCD0M5poMjOQzzuSIQ9-31" value="Writes&amp;nbsp;MESH_basin.map file" style="whiteSpace=wrap;html=1;rounded=1;" parent="1" vertex="1">
          <mxGeometry x="55" y="538" width="150" height="60" as="geometry" />
        </mxCell>
        <mxCell id="RrCD0M5poMjOQzzuSIQ9-34" value="Writes&amp;nbsp;tile ID, grid, GRU, and area weight for land tiles into output_echo file" style="whiteSpace=wrap;html=1;rounded=1;" parent="1" vertex="1">
          <mxGeometry x="55" y="698" width="150" height="60" as="geometry" />
        </mxCell>
        <mxCell id="RrCD0M5poMjOQzzuSIQ9-39" style="edgeStyle=orthogonalEdgeStyle;rounded=0;orthogonalLoop=1;jettySize=auto;html=1;exitX=0;exitY=0.5;exitDx=0;exitDy=0;" parent="1" source="RrCD0M5poMjOQzzuSIQ9-37" target="RrCD0M5poMjOQzzuSIQ9-34" edge="1">
          <mxGeometry relative="1" as="geometry" />
        </mxCell>
        <mxCell id="RrCD0M5poMjOQzzuSIQ9-40" value="Yes" style="edgeLabel;html=1;align=center;verticalAlign=middle;resizable=0;points=[];" parent="RrCD0M5poMjOQzzuSIQ9-39" vertex="1" connectable="0">
          <mxGeometry x="0.067" relative="1" as="geometry">
            <mxPoint as="offset" />
          </mxGeometry>
        </mxCell>
        <mxCell id="RrCD0M5poMjOQzzuSIQ9-42" style="rounded=0;orthogonalLoop=1;jettySize=auto;html=1;exitX=0;exitY=0.5;exitDx=0;exitDy=0;" parent="1" source="RrCD0M5poMjOQzzuSIQ9-37" edge="1">
          <mxGeometry relative="1" as="geometry">
            <mxPoint x="210" y="838" as="targetPoint" />
          </mxGeometry>
        </mxCell>
        <mxCell id="RrCD0M5poMjOQzzuSIQ9-43" value="Yes" style="edgeLabel;html=1;align=center;verticalAlign=middle;resizable=0;points=[];" parent="RrCD0M5poMjOQzzuSIQ9-42" vertex="1" connectable="0">
          <mxGeometry x="0.1194" y="1" relative="1" as="geometry">
            <mxPoint as="offset" />
          </mxGeometry>
        </mxCell>
        <mxCell id="RrCD0M5poMjOQzzuSIQ9-47" value="" style="edgeStyle=orthogonalEdgeStyle;rounded=0;orthogonalLoop=1;jettySize=auto;html=1;" parent="1" source="RrCD0M5poMjOQzzuSIQ9-37" target="RrCD0M5poMjOQzzuSIQ9-46" edge="1">
          <mxGeometry relative="1" as="geometry" />
        </mxCell>
        <mxCell id="RrCD0M5poMjOQzzuSIQ9-37" value="ro%RUNLSS == true" style="rhombus;whiteSpace=wrap;html=1;rounded=1;" parent="1" vertex="1">
          <mxGeometry x="356.25" y="678" width="160" height="100" as="geometry" />
        </mxCell>
        <mxCell id="RrCD0M5poMjOQzzuSIQ9-44" value="Reads soil_levels file, allocates variables in shd and prints summary to output_echo file&amp;nbsp;" style="whiteSpace=wrap;html=1;rounded=1;" parent="1" vertex="1">
          <mxGeometry x="55" y="808" width="155" height="70" as="geometry" />
        </mxCell>
        <mxCell id="RrCD0M5poMjOQzzuSIQ9-49" value="" style="edgeStyle=orthogonalEdgeStyle;rounded=0;orthogonalLoop=1;jettySize=auto;html=1;" parent="1" source="RrCD0M5poMjOQzzuSIQ9-46" target="RrCD0M5poMjOQzzuSIQ9-48" edge="1">
          <mxGeometry relative="1" as="geometry" />
        </mxCell>
        <mxCell id="RrCD0M5poMjOQzzuSIQ9-46" value="model_variables_init:&lt;div&gt;allocates Mesh variables and groups&lt;/div&gt;" style="whiteSpace=wrap;html=1;rounded=1;" parent="1" vertex="1">
          <mxGeometry x="358.75" y="858" width="155" height="80" as="geometry" />
        </mxCell>
        <mxCell id="RrCD0M5poMjOQzzuSIQ9-51" value="" style="edgeStyle=orthogonalEdgeStyle;rounded=0;orthogonalLoop=1;jettySize=auto;html=1;" parent="1" source="RrCD0M5poMjOQzzuSIQ9-48" target="RrCD0M5poMjOQzzuSIQ9-50" edge="1">
          <mxGeometry relative="1" as="geometry" />
        </mxCell>
        <mxCell id="RrCD0M5poMjOQzzuSIQ9-48" value="CLASSD:&lt;div&gt;initialize constants&lt;/div&gt;" style="whiteSpace=wrap;html=1;rounded=1;" parent="1" vertex="1">
          <mxGeometry x="357.5" y="978" width="156.25" height="70" as="geometry" />
        </mxCell>
        <mxCell id="-3qmC9TVdpVm2FQKmF3N-2" value="" style="edgeStyle=orthogonalEdgeStyle;rounded=0;orthogonalLoop=1;jettySize=auto;html=1;" parent="1" source="RrCD0M5poMjOQzzuSIQ9-50" target="-3qmC9TVdpVm2FQKmF3N-1" edge="1">
          <mxGeometry relative="1" as="geometry" />
        </mxCell>
        <mxCell id="-3qmC9TVdpVm2FQKmF3N-4" value="" style="edgeStyle=orthogonalEdgeStyle;rounded=0;orthogonalLoop=1;jettySize=auto;html=1;" parent="1" source="RrCD0M5poMjOQzzuSIQ9-50" target="-3qmC9TVdpVm2FQKmF3N-3" edge="1">
          <mxGeometry relative="1" as="geometry" />
        </mxCell>
        <mxCell id="RrCD0M5poMjOQzzuSIQ9-50" value="read_parameters.f90:&lt;div&gt;reads and allocates model parameters&lt;br&gt;&lt;/div&gt;" style="whiteSpace=wrap;html=1;rounded=1;" parent="1" vertex="1">
          <mxGeometry x="357.5" y="1088" width="156.25" height="70" as="geometry" />
        </mxCell>
        <mxCell id="-3qmC9TVdpVm2FQKmF3N-1" value="&lt;ul style=&quot;text-align: left;&quot;&gt;&lt;li&gt;&lt;font style=&quot;font-size: 10px;&quot;&gt;RUNCLASS36_variables&lt;/font&gt;&lt;/li&gt;&lt;li&gt;&lt;font style=&quot;font-size: 10px;&quot;&gt;irrigation_module&lt;/font&gt;&lt;/li&gt;&lt;li&gt;&lt;font style=&quot;font-size: 10px;&quot;&gt;WatRoute_old/WF_ROUTE_config.&lt;/font&gt;&lt;/li&gt;&lt;li&gt;&lt;font style=&quot;font-size: 10px;&quot;&gt;RPN_watroute/sa_mesh.../rte_module&lt;/font&gt;&lt;/li&gt;&lt;li&gt;&lt;font style=&quot;font-size: 10px;&quot;&gt;PBSM (Blowing Snow) module&amp;nbsp;&amp;nbsp;&lt;/font&gt;&lt;/li&gt;&lt;li&gt;&lt;font style=&quot;font-size: 10px;&quot;&gt;baseflow_module&lt;/font&gt;&lt;/li&gt;&lt;li&gt;&lt;font style=&quot;font-size: 10px;&quot;&gt;cropland_irrigation_variables&lt;/font&gt;&lt;/li&gt;&lt;li&gt;&lt;font style=&quot;font-size: 10px;&quot;&gt;&amp;nbsp;READ_PARAMETERS_*.f90&lt;/font&gt;&lt;/li&gt;&lt;/ul&gt;" style="whiteSpace=wrap;html=1;rounded=1;" parent="1" vertex="1">
          <mxGeometry x="55" y="1053" width="219.99" height="140" as="geometry" />
        </mxCell>
        <mxCell id="-3qmC9TVdpVm2FQKmF3N-3" value="reads runinfo.nc if exists" style="whiteSpace=wrap;html=1;rounded=1;" parent="1" vertex="1">
          <mxGeometry x="358.13" y="1210" width="153.75" height="77" as="geometry" />
        </mxCell>
        <mxCell id="k8cxtBcyO_ocY8MXpLSP-2" value="&lt;h4 style=&quot;text-align: left;&quot;&gt;&lt;span style=&quot;font-size: 10px; background-color: initial;&quot;&gt;Dependencies:&lt;/span&gt;&lt;/h4&gt;&lt;div style=&quot;text-align: left;&quot;&gt;&lt;font style=&quot;font-size: 10px;&quot;&gt;&lt;font style=&quot;&quot;&gt;Modules/mpi_module/&lt;/font&gt;&lt;span style=&quot;background-color: initial;&quot;&gt;mpi_module.f90&lt;/span&gt;&lt;/font&gt;&lt;/div&gt;&lt;div style=&quot;text-align: left;&quot;&gt;&lt;font style=&quot;font-size: 10px;&quot;&gt;&lt;span style=&quot;background-color: initial;&quot;&gt;Modules/&lt;/span&gt;strings&lt;/font&gt;&lt;font style=&quot;font-size: 10px;&quot;&gt;&amp;nbsp;&lt;/font&gt;&lt;/div&gt;&lt;div&gt;&lt;div style=&quot;text-align: left;&quot;&gt;&lt;span style=&quot;font-size: 10px; background-color: initial;&quot;&gt;MESH_Driver/sa_mesh_common.f90&lt;/span&gt;&lt;/div&gt;&lt;font style=&quot;font-size: 10px;&quot;&gt;&lt;div style=&quot;text-align: left;&quot;&gt;&lt;span style=&quot;background-color: initial;&quot;&gt;MESH_Driver/projection_variables.f90&lt;/span&gt;&lt;/div&gt;&lt;div style=&quot;text-align: left;&quot;&gt;&lt;span style=&quot;background-color: initial;&quot;&gt;model_files_variables&lt;/span&gt;&lt;/div&gt;&lt;div style=&quot;text-align: left;&quot;&gt;&lt;span style=&quot;background-color: initial;&quot;&gt;MESH_Driver/FLAGS.f90&lt;/span&gt;&lt;/div&gt;&lt;/font&gt;&lt;/div&gt;&lt;div&gt;&lt;div style=&quot;text-align: left;&quot;&gt;&lt;span style=&quot;font-size: 10px; background-color: initial;&quot;&gt;Modules/io_modules/parse_utilities.f90&lt;/span&gt;&lt;/div&gt;&lt;font style=&quot;&quot;&gt;&lt;div style=&quot;font-size: 10px; text-align: left;&quot;&gt;&lt;span style=&quot;background-color: initial;&quot;&gt;Modules/io_modules/mesh_io.f90&lt;/span&gt;&lt;/div&gt;&lt;div style=&quot;font-size: 10px; text-align: left;&quot;&gt;&lt;span style=&quot;background-color: initial;&quot;&gt;Modules/io_modules/basin_utilities.f90&lt;/span&gt;&lt;/div&gt;&lt;div style=&quot;font-size: 10px; text-align: left;&quot;&gt;&lt;br&gt;&lt;/div&gt;&lt;h4 style=&quot;font-size: 10px; text-align: left;&quot;&gt;Function calls:&lt;/h4&gt;&lt;div style=&quot;text-align: left;&quot;&gt;&lt;span style=&quot;font-size: 10px;&quot;&gt;MESH_Driver/&lt;/span&gt;&lt;span style=&quot;background-color: initial; font-size: 10px; text-align: center;&quot;&gt;read_run_options.f90&lt;/span&gt;&lt;/div&gt;&lt;div style=&quot;text-align: left;&quot;&gt;&lt;span style=&quot;background-color: initial; text-align: center;&quot;&gt;&lt;span style=&quot;font-size: 10px;&quot;&gt;Modules/io_modules/mesh_io.F90/&amp;nbsp;&lt;/span&gt;&lt;/span&gt;&lt;span style=&quot;background-color: initial; text-align: center; font-size: 10px;&quot;&gt;read_file_fields_to_buffer&lt;/span&gt;&lt;span style=&quot;background-color: initial; text-align: center;&quot;&gt;&lt;br&gt;&lt;/span&gt;&lt;/div&gt;&lt;div style=&quot;text-align: left;&quot;&gt;&lt;span style=&quot;background-color: initial; text-align: center;&quot;&gt;&lt;span style=&quot;font-size: 10px;&quot;&gt;Modules/io_modules/basin_utilities.f90/&lt;/span&gt;&lt;/span&gt;&lt;span style=&quot;background-color: initial; text-align: center; font-size: 10px;&quot;&gt;basin_info_from_field_list&lt;/span&gt;&lt;span style=&quot;background-color: initial; text-align: center;&quot;&gt;&lt;br&gt;&lt;/span&gt;&lt;/div&gt;&lt;div style=&quot;text-align: left;&quot;&gt;&lt;font style=&quot;font-size: 10px;&quot;&gt;Modules/mpi_module/mpi_utilities.f90/&amp;nbsp;mpi_split_nml&lt;/font&gt;&lt;br&gt;&lt;/div&gt;&lt;div style=&quot;text-align: left;&quot;&gt;&lt;font style=&quot;&quot;&gt;&lt;span style=&quot;font-size: 10px;&quot;&gt;Driver\MESH_Driver\read_soil_levels.f90/&amp;nbsp;&lt;/span&gt;&lt;span style=&quot;background-color: initial; text-align: center; font-size: 10px;&quot;&gt;READ_SOIL_LEVELS&lt;/span&gt;&lt;br&gt;&lt;/font&gt;&lt;/div&gt;&lt;div style=&quot;text-align: left;&quot;&gt;&lt;font style=&quot;font-size: 10px;&quot;&gt;&lt;br&gt;&lt;/font&gt;&lt;/div&gt;&lt;div style=&quot;text-align: left;&quot;&gt;&lt;span style=&quot;background-color: initial; font-size: 10px; text-align: center;&quot;&gt;&lt;br&gt;&lt;/span&gt;&lt;/div&gt;&lt;/font&gt;&lt;/div&gt;" style="rounded=0;whiteSpace=wrap;html=1;" vertex="1" parent="1">
          <mxGeometry x="10" y="10" width="305" height="290" as="geometry" />
        </mxCell>
      </root>
    </mxGraphModel>
  </diagram>
</mxfile>
